<?xml version="1.0" standalone="no"?>
<!DOCTYPE svg PUBLIC "-//W3C//DTD SVG 20010904//EN"
 "http://www.w3.org/TR/2001/REC-SVG-20010904/DTD/svg10.dtd">
<svg version="1.0" xmlns="http://www.w3.org/2000/svg"
 width="100.000000pt" height="100.000000pt" viewBox="0 0 100.000000 100.000000"
 preserveAspectRatio="xMidYMid meet">
<metadata>
Created by potrace 1.14, written by Peter Selinger 2001-2017
</metadata>
<g transform="translate(0.000000,100.000000) scale(0.100000,-0.100000)"
fill="#000000" stroke="none">
<path d="M6 984 c-3 -9 -6 -51 -6 -95 0 -67 3 -79 17 -79 31 0 139 69 204 129
l64 61 -136 0 c-116 0 -138 -2 -143 -16z m184 -54 c0 -5 -2 -10 -4 -10 -3 0
-8 5 -11 10 -3 6 -1 10 4 10 6 0 11 -4 11 -10z"/>
<path d="M736 594 c-19 -18 -21 -31 -3 -17 6 6 19 12 27 15 9 3 10 7 3 11 -6
4 -19 0 -27 -9z"/>
<path d="M681 542 c0 -29 -8 -81 -17 -116 l-16 -63 -109 -12 c-60 -6 -116 -14
-124 -17 -28 -11 -15 -26 18 -20 l32 6 -28 -11 c-27 -11 -27 -12 -12 -35 8
-13 12 -24 8 -25 -5 0 2 -4 14 -9 16 -7 21 -14 16 -26 -3 -10 -2 -15 3 -12 5
4 10 -8 11 -24 1 -17 7 -36 14 -44 7 -8 8 -29 4 -53 -8 -48 7 -44 -240 -64
l-170 -14 458 -2 457 -1 0 40 c0 40 0 40 -37 40 -21 0 -76 -5 -123 -10 -47 -5
-92 -7 -100 -4 -8 3 -32 25 -52 50 -40 48 -48 87 -28 138 13 35 51 77 63 69 6
-3 7 -1 3 5 -3 6 2 13 11 15 10 3 -1 5 -24 6 -24 0 -43 4 -43 9 0 20 32 157
40 173 14 26 12 38 -3 14 -11 -19 -12 -17 -18 15 -6 31 -7 29 -8 -18z"/>
</g>
</svg>
